<?xml version="1.0" encoding="iso-8859-1"?>
<!-- Generator: Adobe Illustrator 19.0.0, SVG Export Plug-In . SVG Version: 6.00 Build 0)  -->
<svg version="1.1" id="Capa_1" xmlns="http://www.w3.org/2000/svg" xmlns:xlink="http://www.w3.org/1999/xlink" x="0px" y="0px"
	 viewBox="0 0 347.4 347.4" style="enable-background:new 0 0 347.4 347.4;" xml:space="preserve">
<g>
	<g>
		<path d="M173.7,0C77.9,0,0,77.9,0,173.7s77.9,173.7,173.7,173.7s173.7-77.9,173.7-173.7S269.5,0,173.7,0z M282.2,130.3
			L152.1,260.7c-3.9,3.9-10.2,3.9-14.1,0l-72.6-72.6c-3.9-3.9-3.9-10.2,0-14.1l29.4-29.5c3.9-3.9,10.2-3.9,14.1,0l36,36l93.8-93.8
			c3.9-3.9,10.2-3.9,14.1,0l29.4,29.5C286.1,120.1,286.1,126.4,282.2,130.3z"/>
	</g>
</g>
<g>
	<g>
		<path d="M245.7,107.9l-93.9,93.8c-3.9,3.9-10.2,3.9-14.1,0l-36-36l-15.3,15.4l58.4,58.4L261,123.2L245.7,107.9z"/>
	</g>
</g>
<g>
</g>
<g>
</g>
<g>
</g>
<g>
</g>
<g>
</g>
<g>
</g>
<g>
</g>
<g>
</g>
<g>
</g>
<g>
</g>
<g>
</g>
<g>
</g>
<g>
</g>
<g>
</g>
<g>
</g>
</svg>
